<svg width="150" height="46" viewBox="0 0 150 46" fill="none" xmlns="http://www.w3.org/2000/svg">
<g clip-path="url(#clip0_1_2)">
<path d="M0.296738 31.7136V1.4095H5.04451V31.6766H0.296738V31.7136Z" fill="#14597D"/>
<path d="M35.0148 31.7137V15.6157L25.5564 29.7478L16.0608 15.6157V31.6766H11.3131V0.0370922L25.5564 21.2537L39.7997 0.0370922V31.7137H35.0148Z" fill="#14597D"/>
<path d="M50.8531 13.7611H61.9065V18.0267H50.8531V27.411H64.2804V31.6766H50.816H46.1424V1.4095H50.816H64.2804V5.63798H50.8531V13.7611V13.7611Z" fill="#14597D"/>
<path d="M74.592 12.2404V31.7137H69.8442V0L88.8724 20.8457V1.4095H93.6573V33.0861L74.592 12.2404Z" fill="#14597D"/>
<path d="M116.024 25.6306C115.171 28.5608 112.5 30.8976 109.199 31.5282C108.568 31.6395 107.975 31.6766 107.344 31.6766C106.12 31.6766 104.896 31.4911 103.746 31.0089C101.818 30.23 100.148 28.9688 98.7389 27.1142L102.485 24.184C103.338 25.3338 104.377 26.1499 105.453 26.5579C106.343 26.9288 107.344 27.003 108.234 26.8175C109.792 26.5208 111.053 25.5193 111.424 24.2953C111.832 22.9229 110.905 21.6988 110.052 20.8828C108.717 19.6217 106.491 17.4703 106.343 17.2849L102.634 13.7611C101.484 12.6484 100.705 11.4243 100.297 10.1261C99.8887 8.86499 99.8516 7.52967 100.223 6.30564C100.593 5.00742 101.372 3.85757 102.448 2.93027C103.487 2.07715 104.748 1.44659 106.083 1.22404C107.567 0.890208 109.088 1.03858 110.571 1.55786C112.129 2.18843 113.501 3.18991 114.688 4.6365L110.979 7.60386C109.421 5.71217 107.826 5.71217 106.973 5.89763C105.898 6.08309 105.007 6.78784 104.785 7.64095C104.637 8.19733 104.674 9.16172 105.935 10.3858L111.016 15.2077C111.758 15.9496 112.648 16.8027 113.316 17.3961C114.614 18.5831 115.504 19.9184 115.95 21.365C116.395 22.7745 116.432 24.2211 116.024 25.6306Z" fill="#14597D"/>
<path d="M129.006 30.5267C127.151 29.7478 125.593 28.635 124.184 27.2626C122.812 25.8902 121.699 24.2953 120.92 22.4407C120.141 20.6231 119.733 18.6202 119.733 16.5801C119.733 14.5401 120.141 12.5371 120.92 10.6454C121.699 8.86499 122.812 7.27003 124.184 5.82344C125.556 4.45104 127.151 3.37537 129.006 2.59644C130.861 1.81751 132.826 1.4095 134.866 1.4095C136.907 1.4095 138.909 1.81751 140.801 2.59644C142.582 3.37537 144.177 4.45104 145.623 5.82344C146.996 7.23294 148.071 8.82789 148.85 10.6454C149.629 12.5371 150.037 14.5401 150.037 16.5801C150.037 18.6202 149.629 20.6231 148.85 22.4407C148.071 24.2953 147.033 25.8531 145.623 27.2626C144.177 28.635 142.619 29.7478 140.801 30.5267C138.909 31.3056 136.907 31.7136 134.866 31.7136C132.826 31.7136 130.823 31.3056 129.006 30.5267ZM127.522 9.23591C125.556 11.2018 124.444 13.7982 124.444 16.5801C124.444 19.362 125.556 21.9585 127.522 23.9243C129.488 25.8902 132.085 27.003 134.866 27.003C137.648 27.003 140.245 25.8902 142.211 23.9243C144.177 21.9585 145.289 19.362 145.289 16.5801C145.289 13.7982 144.177 11.2018 142.211 9.23591C140.245 7.27003 137.648 6.15727 134.866 6.15727C132.085 6.15727 129.488 7.27003 127.522 9.23591Z" fill="#14597D"/>
<path d="M3.85757 44.2507C3.67211 44.9184 3.07864 45.4377 2.3368 45.5861C2.18843 45.6231 2.04006 45.6231 1.92878 45.6231C1.66914 45.6231 1.3724 45.5861 1.11276 45.4748C0.667656 45.2893 0.296736 45.0297 0 44.6217L0.853116 43.954C1.03858 44.2136 1.26113 44.3991 1.52077 44.4733C1.70623 44.5475 1.92878 44.5846 2.15134 44.5104C2.48516 44.4362 2.7819 44.2136 2.85608 43.954C2.93027 43.6573 2.74481 43.3605 2.55935 43.1751C2.26261 42.8783 1.78042 42.3961 1.74332 42.359L0.9273 41.5801C0.667656 41.3205 0.482196 41.0608 0.408012 40.7641C0.333828 40.4674 0.296736 40.1706 0.408012 39.911C0.482196 39.6142 0.667656 39.3546 0.9273 39.1691C1.14985 38.9837 1.44659 38.8353 1.74332 38.7982C2.07715 38.724 2.41098 38.7611 2.74481 38.8724C3.07864 39.0208 3.41246 39.2433 3.67211 39.5401L2.85608 40.2077C2.52226 39.7997 2.15134 39.7997 1.96588 39.8368C1.74332 39.8739 1.52077 40.0223 1.48368 40.2448C1.44659 40.3561 1.44659 40.5786 1.74332 40.8383L2.85608 41.9139C3.00445 42.0623 3.227 42.2849 3.37537 42.3961C3.67211 42.6558 3.85757 42.9525 3.96884 43.2863C3.93175 43.6202 3.93175 43.954 3.85757 44.2507Z" fill="#14597D"/>
<path d="M21.0312 45.3635C20.6232 45.178 20.2522 44.9555 19.9555 44.6217C19.6588 44.3249 19.3991 43.954 19.2137 43.546C19.0282 43.138 18.954 42.6929 18.954 42.2478C18.954 41.8027 19.0282 41.3576 19.2137 40.9125C19.3991 40.5045 19.6217 40.1706 19.9555 39.8368C20.2522 39.5401 20.6232 39.2804 21.0312 39.132C21.4392 38.9466 21.8843 38.8724 22.3294 38.8724C22.7745 38.8724 23.2196 38.9466 23.6647 39.132C24.0727 39.3175 24.4065 39.5401 24.7404 39.8368C25.0371 40.1706 25.2967 40.5045 25.4451 40.9125C25.6306 41.3205 25.7048 41.7656 25.7048 42.2478C25.7048 42.73 25.6306 43.138 25.4451 43.546C25.2596 43.954 25.0371 44.3249 24.7404 44.6217C24.4065 44.9184 24.0727 45.178 23.6647 45.3635C23.2567 45.549 22.8116 45.6231 22.3294 45.6231C21.8843 45.6231 21.4392 45.5119 21.0312 45.3635ZM20.6973 40.6157C20.2522 41.0608 20.0297 41.6172 20.0297 42.2478C20.0297 42.8783 20.2893 43.4347 20.6973 43.8798C21.1424 44.3249 21.6988 44.5475 22.3294 44.5475C22.9599 44.5475 23.5163 44.2878 23.9614 43.8798C24.4065 43.4347 24.6291 42.8412 24.6291 42.2478C24.6291 41.6172 24.3694 41.0608 23.9614 40.6157C23.5163 40.1706 22.9599 39.9481 22.3294 39.9481C21.6988 39.911 21.1053 40.1706 20.6973 40.6157Z" fill="#14597D"/>
<path d="M42.2107 41.6172H44.6959V42.5816H42.2107V45.6231H41.1721V38.8724H42.2107H45.2151V39.8368H42.2107V41.6172Z" fill="#14597D"/>
<path d="M64.6142 39.7997H62.7596V45.6231H61.684V39.7997H59.8294V38.8353H64.6142V39.7997Z" fill="#14597D"/>
<path d="M86.0905 45.9199L84.3101 41.8398L82.641 45.9199L79.5623 38.8724H80.7122L82.6039 43.3234L83.7166 40.5045L84.273 39.095L84.8665 40.4674L86.0534 43.2864L87.8338 38.8353H88.9837L86.0905 45.9199Z" fill="#14597D"/>
<path d="M106.269 44.1766H103.858L103.301 45.6231H102.151L105.082 38.5386L108.012 45.6231H106.862L106.269 44.1766ZM105.898 43.2122L105.082 41.1721L104.266 43.2122H105.898Z" fill="#14597D"/>
<path d="M127.856 45.6231H126.669L124.963 43.3234H124.184V45.6231H123.145V38.8724H124.036H125.148C126.039 38.8724 126.558 39.2433 126.818 39.5401C127.188 39.9481 127.374 40.4674 127.374 41.0979C127.374 41.7285 127.188 42.2478 126.818 42.6558C126.669 42.8412 126.409 43.0638 126.039 43.1751L127.856 45.6231ZM125.111 42.3961C125.556 42.3961 125.89 42.2849 126.076 42.0252C126.335 41.7656 126.372 41.3576 126.372 41.0979C126.372 40.8383 126.335 40.4303 126.076 40.1706C125.853 39.9481 125.556 39.7997 125.111 39.7997H124.147V42.3591H125.111V42.3961Z" fill="#14597D"/>
<path d="M143.991 41.6172H146.476V42.5816H143.991V44.6588H146.996V45.6231H143.991H142.953V38.8724H143.991H146.996V39.8368H143.991V41.6172Z" fill="#14597D"/>
</g>
<defs>
<clipPath id="clip0_1_2">
<rect width="150" height="45.9199" fill="white"/>
</clipPath>
</defs>
</svg>
