<?xml version="1.0" encoding="UTF-8"?>
<!-- Generator: Adobe Illustrator 18.1.1, SVG Export Plug-In . SVG Version: 6.00 Build 0)  -->
<svg version="1.1" id="Layer_1" xmlns="http://www.w3.org/2000/svg" xmlns:xlink="http://www.w3.org/1999/xlink" x="0px" y="0px" viewBox="0 0 404.4 123.8" enable-background="new 0 0 404.4 123.8" xml:space="preserve">
<g>
	<g>
		<path fill="#14597D" d="M0.8,85.5V3.8h12.8v81.6H0.8z"/>
		<path fill="#14597D" d="M94.4,85.5V42.1L68.9,80.2L43.3,42.1v43.3H30.5V0.1l38.4,57.2l38.4-57.2v85.4H94.4z"/>
		<path fill="#14597D" d="M137.1,37.1h29.8v11.5h-29.8v25.3h36.2v11.5H137h-12.6V3.8H137h36.3v11.4h-36.2V37.1z"/>
		<path fill="#14597D" d="M201.1,33v52.5h-12.8V0l51.3,56.2V3.8h12.9v85.4L201.1,33z"/>
		<path fill="#14597D" d="M312.8,69.1c-2.3,7.9-9.5,14.2-18.4,15.9c-1.7,0.3-3.3,0.4-5,0.4c-3.3,0-6.6-0.5-9.7-1.8    c-5.2-2.1-9.7-5.5-13.5-10.5l10.1-7.9c2.3,3.1,5.1,5.3,8,6.4c2.4,1,5.1,1.2,7.5,0.7c4.2-0.8,7.6-3.5,8.6-6.8    c1.1-3.7-1.4-7-3.7-9.2c-3.6-3.4-9.6-9.2-10-9.7l-10-9.5c-3.1-3-5.2-6.3-6.3-9.8c-1.1-3.4-1.2-7-0.2-10.3c1-3.5,3.1-6.6,6-9.1    c2.8-2.3,6.2-4,9.8-4.6c4-0.9,8.1-0.5,12.1,0.9c4.2,1.7,7.9,4.4,11.1,8.3l-10,8c-4.2-5.1-8.5-5.1-10.8-4.6    c-2.9,0.5-5.3,2.4-5.9,4.7c-0.4,1.5-0.3,4.1,3.1,7.4L299.3,41c2,2,4.4,4.3,6.2,5.9c3.5,3.2,5.9,6.8,7.1,10.7    C313.8,61.4,313.9,65.3,312.8,69.1z"/>
	</g>
	<g>
		<path fill="#14597D" d="M347.8,82.3c-5-2.1-9.2-5.1-13-8.8c-3.7-3.7-6.7-8-8.8-13c-2.1-4.9-3.2-10.3-3.2-15.8s1.1-10.9,3.2-16    c2.1-4.8,5.1-9.1,8.8-13c3.7-3.7,8-6.6,13-8.7s10.3-3.2,15.8-3.2s10.9,1.1,16,3.2c4.8,2.1,9.1,5,13,8.7c3.7,3.8,6.6,8.1,8.7,13    c2.1,5.1,3.2,10.5,3.2,16s-1.1,10.9-3.2,15.8c-2.1,5-4.9,9.2-8.7,13c-3.9,3.7-8.1,6.7-13,8.8c-5.1,2.1-10.5,3.2-16,3.2    S352.7,84.4,347.8,82.3z M343.8,24.9c-5.3,5.3-8.3,12.3-8.3,19.8c0,7.5,3,14.5,8.3,19.8c5.3,5.3,12.3,8.3,19.8,8.3    c7.5,0,14.5-3,19.8-8.3c5.3-5.3,8.3-12.3,8.3-19.8c0-7.5-3-14.5-8.3-19.8c-5.3-5.3-12.3-8.3-19.8-8.3    C356.1,16.6,349.1,19.6,343.8,24.9z"/>
	</g>
	<g>
		<path fill="#14597D" d="M10.4,119.3c-0.5,1.8-2.1,3.2-4.1,3.6C5.9,123,5.5,123,5.2,123c-0.7,0-1.5-0.1-2.2-0.4    c-1.2-0.5-2.2-1.2-3-2.3l2.3-1.8c0.5,0.7,1.1,1.2,1.8,1.4c0.5,0.2,1.1,0.3,1.7,0.1c0.9-0.2,1.7-0.8,1.9-1.5    c0.2-0.8-0.3-1.6-0.8-2.1c-0.8-0.8-2.1-2.1-2.2-2.2l-2.2-2.1c-0.7-0.7-1.2-1.4-1.4-2.2c-0.2-0.8-0.3-1.6,0-2.3    c0.2-0.8,0.7-1.5,1.4-2c0.6-0.5,1.4-0.9,2.2-1c0.9-0.2,1.8-0.1,2.7,0.2c0.9,0.4,1.8,1,2.5,1.8l-2.2,1.8c-0.9-1.1-1.9-1.1-2.4-1    c-0.6,0.1-1.2,0.5-1.3,1.1c-0.1,0.3-0.1,0.9,0.7,1.6l3,2.9c0.4,0.4,1,1,1.4,1.3c0.8,0.7,1.3,1.5,1.6,2.4    C10.6,117.6,10.6,118.5,10.4,119.3z"/>
	</g>
	<g>
		<path fill="#14597D" d="M56.7,122.3c-1.1-0.5-2.1-1.1-2.9-2c-0.8-0.8-1.5-1.8-2-2.9c-0.5-1.1-0.7-2.3-0.7-3.5s0.2-2.4,0.7-3.6    c0.5-1.1,1.1-2,2-2.9c0.8-0.8,1.8-1.5,2.9-1.9c1.1-0.5,2.3-0.7,3.5-0.7c1.2,0,2.4,0.2,3.6,0.7c1.1,0.5,2,1.1,2.9,1.9    c0.8,0.9,1.5,1.8,1.9,2.9c0.5,1.1,0.7,2.3,0.7,3.6s-0.2,2.4-0.7,3.5c-0.5,1.1-1.1,2.1-1.9,2.9c-0.9,0.8-1.8,1.5-2.9,2    c-1.1,0.5-2.3,0.7-3.6,0.7C59,123,57.8,122.7,56.7,122.3z M55.8,109.5c-1.2,1.2-1.8,2.7-1.8,4.4c0,1.7,0.7,3.2,1.8,4.4    c1.2,1.2,2.7,1.8,4.4,1.8c1.7,0,3.2-0.7,4.4-1.8c1.2-1.2,1.8-2.8,1.8-4.4c0-1.7-0.7-3.2-1.8-4.4c-1.2-1.2-2.7-1.8-4.4-1.8    C58.5,107.6,56.9,108.3,55.8,109.5z"/>
		<path fill="#14597D" d="M113.8,112.2h6.7v2.6h-6.7v8.2H111v-18.2h2.8h8.1v2.6h-8.1V112.2z"/>
		<path fill="#14597D" d="M174.2,107.3h-5V123h-2.9v-15.7h-5v-2.6h12.9V107.3z"/>
		<path fill="#14597D" d="M232.1,123.8l-4.8-11l-4.5,11l-8.3-19h3.1l5.1,12l3-7.6l1.5-3.8l1.6,3.7l3.2,7.6l4.8-12h3.1L232.1,123.8z"/>
	</g>
	<g>
		<path fill="#14597D" d="M286.5,119.1H280l-1.5,3.9h-3.1l7.9-19.1l7.9,19.1h-3.1L286.5,119.1z M285.5,116.5l-2.2-5.5l-2.2,5.5    H285.5z"/>
		<path fill="#14597D" d="M344.7,123h-3.2l-4.6-6.2h-2.1v6.2h-2.8v-18.2h2.4h3c2.4,0,3.8,1,4.5,1.8c1,1.1,1.5,2.5,1.5,4.2    c0,1.7-0.5,3.1-1.5,4.2c-0.4,0.5-1.1,1.1-2.1,1.4L344.7,123z M337.3,114.3c1.2,0,2.1-0.3,2.6-1c0.7-0.7,0.8-1.8,0.8-2.5    c0-0.7-0.1-1.8-0.8-2.5c-0.6-0.6-1.4-1-2.6-1h-2.6v6.9H337.3z"/>
	</g>
	<g>
		<path fill="#14597D" d="M388.2,112.2h6.7v2.6h-6.7v5.6h8.1v2.6h-8.1h-2.8v-18.2h2.8h8.1v2.6h-8.1V112.2z"/>
	</g>
</g>
</svg>